<?xml version="1.0" encoding="utf-8"?>
<!-- Generator: Adobe Illustrator 25.3.1, SVG Export Plug-In . SVG Version: 6.00 Build 0)  -->
<svg version="1.1" id="Layer_1" xmlns="http://www.w3.org/2000/svg" xmlns:xlink="http://www.w3.org/1999/xlink" x="0px" y="0px"
	 viewBox="0 0 216 216" style="enable-background:new 0 0 216 216;" xml:space="preserve">
<style type="text/css">
	.st0{fill:#FFFFFF;}
</style>
<path class="st0" d="M19.92,100.53c-0.56,0-1.02-0.19-1.4-0.56c-0.37-0.37-0.56-0.84-0.56-1.4V78.3c0-0.56,0.19-1.02,0.56-1.4
	c0.37-0.38,0.84-0.56,1.4-0.56h3.92c0.56,0,1.02,0.19,1.4,0.56c0.37,0.37,0.56,0.84,0.56,1.4v2.62c0,0.19-0.06,0.35-0.18,0.47
	c-0.12,0.12-0.28,0.18-0.47,0.18h-1.31c-0.19,0-0.35-0.06-0.47-0.18c-0.12-0.12-0.18-0.28-0.18-0.47v-1.31
	c0-0.19-0.06-0.35-0.18-0.47c-0.12-0.12-0.28-0.18-0.47-0.18h-3.92c0.56,0,1.02,0.19,1.4,0.56c0.37,0.37,0.56,0.84,0.56,1.4v16.35
	c0,0.19,0.06,0.35,0.18,0.47c0.12,0.12,0.28,0.18,0.47,0.18h1.31c0.19,0,0.35-0.06,0.47-0.18c0.12-0.12,0.18-0.28,0.18-0.47v-1.31
	c0-0.19,0.06-0.35,0.18-0.47c0.12-0.12,0.28-0.18,0.47-0.18h1.31c0.19,0,0.35,0.06,0.47,0.18c0.12,0.12,0.18,0.28,0.18,0.47v2.62
	c0,0.56-0.19,1.02-0.56,1.4c-0.38,0.38-0.84,0.56-1.4,0.56H19.92z"/>
<path class="st0" d="M39.33,76.99c0-0.19,0.06-0.35,0.18-0.47c0.12-0.12,0.28-0.18,0.47-0.18h1.31c0.19,0,0.35,0.06,0.47,0.18
	c0.12,0.12,0.18,0.28,0.18,0.47v18.96c0,0.56-0.19,1.02-0.56,1.4c-0.38,0.38-0.84,0.56-1.4,0.56h6.53c0.19,0,0.35,0.06,0.47,0.18
	c0.12,0.12,0.18,0.28,0.18,0.47v1.31c0,0.19-0.06,0.35-0.18,0.47c-0.12,0.12-0.28,0.18-0.47,0.18h-5.22c-0.56,0-1.02-0.19-1.4-0.56
	c-0.38-0.37-0.56-0.84-0.56-1.4V76.99z"/>
<path class="st0" d="M62.66,100.53c-0.56,0-1.02-0.19-1.4-0.56c-0.37-0.37-0.56-0.84-0.56-1.4V78.3c0-0.56,0.19-1.02,0.56-1.4
	c0.37-0.38,0.84-0.56,1.4-0.56h5.23c0.19,0,0.35,0.06,0.47,0.18c0.12,0.12,0.18,0.28,0.18,0.47v1.31c0,0.19-0.06,0.35-0.18,0.47
	c-0.12,0.12-0.28,0.18-0.47,0.18h-6.53c0.56,0,1.02,0.19,1.4,0.56c0.37,0.37,0.56,0.84,0.56,1.4v7.19c0,0.2,0.06,0.35,0.18,0.47
	c0.12,0.12,0.28,0.18,0.47,0.18h1.31c0.2,0,0.35,0.06,0.47,0.18c0.12,0.12,0.18,0.28,0.18,0.47v1.31c0,0.19-0.06,0.35-0.18,0.47
	c-0.12,0.12-0.28,0.18-0.47,0.18h-3.92c0.56,0,1.02,0.19,1.4,0.57c0.37,0.37,0.56,0.84,0.56,1.4v3.92c0,0.19,0.06,0.35,0.18,0.47
	c0.12,0.12,0.28,0.18,0.47,0.18h3.92c0.19,0,0.35,0.06,0.47,0.18c0.12,0.12,0.18,0.28,0.18,0.47v1.31c0,0.19-0.06,0.35-0.18,0.47
	c-0.12,0.12-0.28,0.18-0.47,0.18H62.66z"/>
<path class="st0" d="M89.91,98.57c0,0.56-0.19,1.02-0.56,1.4c-0.37,0.38-0.84,0.56-1.4,0.56h-3.92c-0.56,0-1.02-0.19-1.4-0.56
	c-0.38-0.37-0.56-0.84-0.56-1.4V76.99c0-0.19,0.06-0.35,0.18-0.47c0.12-0.12,0.28-0.18,0.47-0.18h1.31c0.19,0,0.35,0.06,0.47,0.18
	c0.12,0.12,0.18,0.28,0.18,0.47v18.96c0,0.56-0.19,1.02-0.56,1.4c-0.38,0.38-0.84,0.56-1.4,0.56h3.92c0.19,0,0.35-0.06,0.47-0.18
	c0.12-0.12,0.18-0.28,0.18-0.47V76.99c0-0.19,0.06-0.35,0.18-0.47c0.12-0.12,0.28-0.18,0.47-0.18h1.31c0.19,0,0.35,0.06,0.47,0.18
	c0.12,0.12,0.18,0.28,0.18,0.47V98.57z"/>
<path class="st0" d="M105.4,100.53c-0.56,0-1.02-0.19-1.4-0.56c-0.37-0.37-0.56-0.84-0.56-1.4V78.3c0-0.56,0.19-1.02,0.56-1.4
	c0.37-0.38,0.84-0.56,1.4-0.56h5.23c0.19,0,0.35,0.06,0.47,0.18c0.12,0.12,0.18,0.28,0.18,0.47v1.31c0,0.19-0.06,0.35-0.18,0.47
	c-0.12,0.12-0.28,0.18-0.47,0.18h-6.53c0.56,0,1.02,0.19,1.4,0.56c0.37,0.37,0.56,0.84,0.56,1.4v7.19c0,0.2,0.06,0.35,0.18,0.47
	c0.12,0.12,0.28,0.18,0.47,0.18h1.31c0.2,0,0.35,0.06,0.47,0.18c0.12,0.12,0.18,0.28,0.18,0.47v1.31c0,0.19-0.06,0.35-0.18,0.47
	c-0.12,0.12-0.28,0.18-0.47,0.18h-3.92c0.56,0,1.02,0.19,1.4,0.57c0.37,0.37,0.56,0.84,0.56,1.4v3.92c0,0.19,0.06,0.35,0.18,0.47
	c0.12,0.12,0.28,0.18,0.47,0.18h3.92c0.19,0,0.35,0.06,0.47,0.18c0.12,0.12,0.18,0.28,0.18,0.47v1.31c0,0.19-0.06,0.35-0.18,0.47
	c-0.12,0.12-0.28,0.18-0.47,0.18H105.4z"/>
<path class="st0" d="M124.81,76.99c0-0.19,0.06-0.35,0.18-0.47c0.12-0.12,0.28-0.18,0.47-0.18h1.31c0.19,0,0.35,0.06,0.47,0.18
	c0.12,0.12,0.18,0.28,0.18,0.47v18.96c0,0.56-0.19,1.02-0.56,1.4c-0.38,0.38-0.84,0.56-1.4,0.56H132c0.19,0,0.35,0.06,0.47,0.18
	c0.12,0.12,0.18,0.28,0.18,0.47v1.31c0,0.19-0.06,0.35-0.18,0.47c-0.12,0.12-0.28,0.18-0.47,0.18h-5.22c-0.56,0-1.02-0.19-1.4-0.56
	c-0.38-0.37-0.56-0.84-0.56-1.4V76.99z"/>
<path class="st0" d="M152.06,76.34c0.56,0,1.02,0.19,1.4,0.56c0.37,0.37,0.56,0.84,0.56,1.4v21.58c0,0.19-0.06,0.35-0.18,0.47
	c-0.12,0.12-0.28,0.18-0.47,0.18h-1.31c-0.19,0-0.35-0.06-0.47-0.18c-0.12-0.12-0.18-0.28-0.18-0.47v-7.85
	c0-0.19-0.06-0.35-0.18-0.47c-0.12-0.12-0.28-0.18-0.47-0.18h-3.92c0.56,0,1.02,0.19,1.4,0.56c0.37,0.37,0.56,0.84,0.56,1.4v6.54
	c0,0.19-0.06,0.35-0.18,0.47c-0.12,0.12-0.28,0.18-0.47,0.18h-1.31c-0.19,0-0.35-0.06-0.47-0.18c-0.12-0.12-0.18-0.28-0.18-0.47
	V78.3c0-0.56,0.19-1.02,0.56-1.4c0.37-0.38,0.84-0.56,1.4-0.56H152.06z M151.41,79.61c0-0.19-0.06-0.35-0.18-0.47
	c-0.12-0.12-0.28-0.18-0.47-0.18h-3.92c0.56,0,1.02,0.19,1.4,0.56c0.37,0.37,0.56,0.84,0.56,1.4v7.19c0,0.2,0.06,0.35,0.18,0.47
	c0.12,0.12,0.28,0.18,0.47,0.18h1.31c0.19,0,0.35-0.06,0.47-0.18c0.12-0.12,0.18-0.28,0.18-0.47V79.61z"/>
<path class="st0" d="M175.39,99.88c0,0.19-0.06,0.35-0.18,0.47c-0.12,0.12-0.28,0.18-0.47,0.18h-1.31c-0.19,0-0.35-0.06-0.47-0.18
	c-0.12-0.12-0.18-0.28-0.18-0.47V79.61c0-0.19-0.06-0.35-0.18-0.47c-0.12-0.12-0.28-0.18-0.47-0.18h-3.92c0.56,0,1.02,0.19,1.4,0.56
	c0.37,0.37,0.56,0.84,0.56,1.4v18.96c0,0.19-0.06,0.35-0.18,0.47c-0.12,0.12-0.28,0.18-0.47,0.18h-1.31c-0.19,0-0.35-0.06-0.47-0.18
	c-0.12-0.12-0.18-0.28-0.18-0.47V76.99c0-0.19,0.06-0.35,0.18-0.47c0.12-0.12,0.28-0.18,0.47-0.18h5.22c0.56,0,1.02,0.19,1.4,0.56
	c0.38,0.37,0.56,0.84,0.56,1.4V99.88z"/>
<path class="st0" d="M194.81,76.34c0.56,0,1.02,0.19,1.4,0.56c0.37,0.37,0.56,0.84,0.56,1.4v20.27c0,0.56-0.19,1.02-0.56,1.4
	c-0.38,0.38-0.84,0.56-1.4,0.56h-5.23c-0.19,0-0.35-0.06-0.47-0.18c-0.12-0.12-0.18-0.28-0.18-0.47V76.99
	c0-0.19,0.06-0.35,0.18-0.47c0.12-0.12,0.28-0.18,0.47-0.18H194.81z M194.15,79.61c0-0.19-0.06-0.35-0.18-0.47
	c-0.12-0.12-0.28-0.18-0.47-0.18h-3.92c0.56,0,1.02,0.19,1.4,0.56c0.37,0.37,0.56,0.84,0.56,1.4v16.35c0,0.19,0.06,0.35,0.18,0.47
	c0.12,0.12,0.28,0.18,0.47,0.18h1.31c0.19,0,0.35-0.06,0.47-0.18c0.12-0.12,0.18-0.28,0.18-0.47V79.61z"/>
<path class="st0" d="M46.21,152.85c0,1.91-0.64,3.51-1.93,4.79c-1.29,1.29-2.88,1.93-4.79,1.93c1.91,0,3.5,0.64,4.79,1.93
	c1.29,1.29,1.93,2.89,1.93,4.79v26.91c0,0.66-0.21,1.21-0.62,1.62c-0.42,0.42-0.96,0.62-1.62,0.62h-4.48c-0.67,0-1.2-0.21-1.62-0.62
	c-0.42-0.41-0.62-0.96-0.62-1.62V166.3c0-0.66-0.21-1.2-0.62-1.62c-0.42-0.41-0.95-0.62-1.62-0.62H21.58c1.91,0,3.5,0.64,4.79,1.93
	c1.28,1.29,1.93,2.88,1.93,4.79v22.42c0,0.66-0.21,1.21-0.62,1.62c-0.42,0.42-0.95,0.62-1.62,0.62h-4.48c-0.67,0-1.2-0.21-1.62-0.62
	c-0.42-0.41-0.62-0.96-0.62-1.62v-78.47c0-0.67,0.21-1.2,0.62-1.62c0.41-0.42,0.95-0.62,1.62-0.62h17.92c1.91,0,3.5,0.64,4.79,1.93
	c1.29,1.29,1.93,2.89,1.93,4.8V152.85z M37.25,123.7c0-0.66-0.21-1.2-0.62-1.62c-0.42-0.41-0.95-0.62-1.62-0.62H21.58
	c1.91,0,3.5,0.64,4.79,1.93c1.28,1.29,1.93,2.89,1.93,4.8v24.66c0,0.67,0.21,1.2,0.62,1.62c0.41,0.42,0.95,0.62,1.62,0.62h4.48
	c0.66,0,1.2-0.21,1.62-0.62c0.41-0.41,0.62-0.95,0.62-1.62V123.7z"/>
<path class="st0" d="M63.38,195.44c-1.91,0-3.5-0.64-4.79-1.93c-1.29-1.29-1.93-2.88-1.93-4.79v-69.5c0-1.91,0.64-3.51,1.93-4.8
	c1.28-1.29,2.88-1.93,4.79-1.93h17.92c0.66,0,1.2,0.21,1.62,0.62c0.41,0.42,0.62,0.96,0.62,1.62v4.48c0,0.66-0.21,1.2-0.62,1.62
	c-0.42,0.41-0.95,0.62-1.62,0.62H58.9c1.91,0,3.5,0.64,4.79,1.93c1.28,1.29,1.93,2.89,1.93,4.8v24.66c0,0.66,0.21,1.2,0.62,1.62
	c0.41,0.42,0.95,0.62,1.62,0.62h4.48c0.66,0,1.2,0.21,1.62,0.62c0.41,0.42,0.62,0.95,0.62,1.62v4.48c0,0.67-0.21,1.21-0.62,1.62
	c-0.42,0.42-0.95,0.62-1.62,0.62H58.9c1.91,0,3.5,0.64,4.79,1.93c1.28,1.29,1.93,2.89,1.93,4.8v13.45c0,0.67,0.21,1.2,0.62,1.62
	c0.41,0.42,0.95,0.62,1.62,0.62h13.44c0.66,0,1.2,0.21,1.62,0.62c0.41,0.42,0.62,0.96,0.62,1.62v4.48c0,0.67-0.21,1.21-0.62,1.62
	c-0.42,0.42-0.95,0.62-1.62,0.62H63.38z"/>
<path class="st0" d="M114.13,112.49c1.91,0,3.5,0.64,4.79,1.93c1.29,1.29,1.93,2.89,1.93,4.8v73.99c0,0.66-0.21,1.21-0.62,1.62
	c-0.42,0.42-0.96,0.62-1.62,0.62h-4.48c-0.67,0-1.2-0.21-1.62-0.62c-0.42-0.41-0.62-0.96-0.62-1.62V166.3c0-0.66-0.21-1.2-0.62-1.62
	c-0.42-0.41-0.95-0.62-1.62-0.62H96.22c1.91,0,3.5,0.64,4.79,1.93c1.28,1.29,1.93,2.88,1.93,4.79v22.42c0,0.66-0.21,1.21-0.62,1.62
	c-0.42,0.42-0.95,0.62-1.62,0.62h-4.48c-0.67,0-1.2-0.21-1.62-0.62c-0.42-0.41-0.62-0.96-0.62-1.62v-73.99
	c0-1.91,0.64-3.51,1.93-4.8c1.28-1.29,2.88-1.93,4.79-1.93H114.13z M111.89,123.7c0-0.66-0.21-1.2-0.62-1.62
	c-0.42-0.41-0.95-0.62-1.62-0.62H96.22c1.91,0,3.5,0.64,4.79,1.93c1.28,1.29,1.93,2.89,1.93,4.8v24.66c0,0.67,0.21,1.2,0.62,1.62
	c0.41,0.42,0.95,0.62,1.62,0.62h4.48c0.66,0,1.2-0.21,1.62-0.62c0.41-0.41,0.62-0.95,0.62-1.62V123.7z"/>
<path class="st0" d="M151.45,112.49c1.91,0,3.5,0.64,4.79,1.93c1.29,1.29,1.93,2.89,1.93,4.8v69.51c0,1.91-0.64,3.51-1.93,4.79
	c-1.29,1.29-2.88,1.93-4.79,1.93h-17.92c-0.67,0-1.2-0.21-1.62-0.62c-0.42-0.41-0.62-0.96-0.62-1.62v-78.47
	c0-0.67,0.21-1.2,0.62-1.62c0.41-0.42,0.95-0.62,1.62-0.62H151.45z M149.21,123.7c0-0.66-0.21-1.2-0.62-1.62
	c-0.42-0.41-0.95-0.62-1.62-0.62h-13.44c1.91,0,3.5,0.64,4.79,1.93c1.28,1.29,1.93,2.89,1.93,4.8v56.05c0,0.67,0.21,1.2,0.62,1.62
	c0.41,0.42,0.95,0.62,1.62,0.62h4.48c0.66,0,1.2-0.21,1.62-0.62c0.41-0.41,0.62-0.95,0.62-1.62V123.7z"/>
<path class="st0" d="M188.77,112.49c1.91,0,3.5,0.64,4.79,1.93c1.28,1.29,1.93,2.89,1.93,4.8v8.97c0,0.67-0.21,1.2-0.62,1.62
	c-0.42,0.42-0.95,0.62-1.62,0.62h-4.48c-0.67,0-1.2-0.21-1.62-0.62c-0.42-0.41-0.62-0.95-0.62-1.62v-4.48c0-0.66-0.21-1.2-0.62-1.62
	c-0.42-0.41-0.95-0.62-1.62-0.62h-13.44c1.91,0,3.5,0.64,4.79,1.93c1.28,1.29,1.93,2.89,1.93,4.8v15.69c0,0.67,0.21,1.21,0.62,1.62
	c0.42,0.42,0.95,0.62,1.62,0.62h8.96c1.91,0,3.5,0.64,4.79,1.93c1.28,1.29,1.93,2.89,1.93,4.8v35.87c0,1.91-0.64,3.51-1.93,4.79
	c-1.29,1.29-2.88,1.93-4.79,1.93h-13.44c-1.91,0-3.5-0.64-4.79-1.93c-1.29-1.29-1.93-2.88-1.93-4.79v-8.97
	c0-0.66,0.21-1.2,0.62-1.62c0.41-0.42,0.95-0.62,1.62-0.62h4.48c0.66,0,1.2,0.21,1.62,0.62c0.42,0.41,0.62,0.96,0.62,1.62v4.48
	c0,0.67,0.21,1.2,0.62,1.62c0.42,0.42,0.95,0.62,1.62,0.62h4.48c0.66,0,1.2-0.21,1.62-0.62c0.41-0.42,0.62-0.95,0.62-1.62v-26.9
	c0-0.66-0.21-1.2-0.62-1.62c-0.42-0.42-0.95-0.62-1.62-0.62h-8.96c-1.91,0-3.5-0.64-4.79-1.93c-1.29-1.29-1.93-2.88-1.93-4.79
	v-29.15c0-1.91,0.64-3.51,1.93-4.8c1.28-1.29,2.88-1.93,4.79-1.93H188.77z"/>
<path class="st0" d="M106.93,58.71c0,0,19.06-33.8,58.63-19.64l8.9,7.1C174.46,46.16,132.68,45.78,106.93,58.71"/>
<path class="st0" d="M106.98,58.71c0,0-19.16-33.75-58.69-19.47l-8.88,7.12C39.41,46.37,81.18,45.86,106.98,58.71"/>
<path class="st0" d="M106.8,65.92c-0.16,0-0.31-0.01-0.46-0.04L36.38,52.9c-1.37-0.25-2.27-1.57-2.02-2.94
	c0.25-1.37,1.57-2.27,2.94-2.02l69.49,12.9l72.27-13.88c1.37-0.26,2.69,0.63,2.95,2c0.26,1.37-0.63,2.69-2,2.95l-72.74,13.97
	C107.12,65.91,106.96,65.92,106.8,65.92"/>
<path class="st0" d="M107.31,54.76c0,0,9.37-33.85,42.07-32.88l7.85,7.14C157.23,29.02,122.94,30.09,107.31,54.76"/>
<path class="st0" d="M106.41,54.64c0,0-6.16-21.79-38.77-33.77l10.33-2.4C77.97,18.47,106.94,29.78,106.41,54.64"/>
</svg>
